<?xml version="1.0" encoding="UTF-8"?><svg id="Layer_2" xmlns="http://www.w3.org/2000/svg" viewBox="0 0 549.57 447.38"><defs><style>.cls-1{fill:#1f9dbb;stroke-width:0px;}</style></defs><g id="Layer_1-2"><path class="cls-1" d="M473,115.73c-28.68,25.68-59.34,47.92-94.93,66.9,4.27,2.12,6.98,2.84,9.44,4.47,43.34,16.98,72.99,57.86,74.22,103.68,1.65,47.86-24.51,91.15-68.38,110.32-33.14,15.28-66.37,29.09-99.85,43.8-1.14.66-3.19,1.08-6.96,2.48,23.56-37.22,83.09-76.85,83.09-76.85,27.33-13.46,51.28-34.12,55.34-65.44,7.08-60.52-52.84-107.6-109.48-84.12-85.2,36.12-169.74,73.39-254.61,110.09l-.57.33c-4.55,6.26-17.03,10.56-25.05,15.18-15.46,8.91-27.31,5.26-33.28-5.22-5.81-10.19,1.46-23.04,16.92-31.95,9.74-5.61,18.08-11.86,26.7-11.49q.9.24,1.47-.09c40.68-18.1,83-33.33,122.93-54.04,31.82-17.57,61.34-39.15,90.19-61.88,61.63-49.23,108.62-110.63,142.31-181.9-16.54,50.71-40.39,98.01-70.64,142.14,46.74-40.66,90.03-84.67,129.86-132.02.33.57,1.56,1.39,2.79,2.2-33.22,38.97-65.54,78.18-98.19,116.82l.66,1.15c36.85-32.67,73.46-64.44,110.31-97.11l.9.24c-15.36,15.71-29.81,31.66-44.59,47.04-15.35,15.71-31.04,30.85-47.63,45.74-16.01,14.56-32.36,28.56-48.94,43.45,82.03-29.71,153.01-75.95,212.53-140.75-22.67,32.13-48.23,60.58-76.58,86.83Z"/><path class="cls-1" d="M72.01,276.37c4.78-9.1,9.45-18.26,14.37-27.28,26-47.65,41.58-98.64,49.61-152.17,1.75-11.7,4.33-23.43,8.02-34.65,5.13-15.58,14.66-17.02,24.98-4.05,11.77,14.78,16.18,32.61,18.54,50.88,1.42,11.03,1.63,22.23,2.48,34.75,5.87-10.53,10.88-20.13,16.46-29.37,4.08-6.75,8.29-13.59,13.54-19.41,8.33-9.24,17.09-8.26,20.87,3.5,3.74,11.61,6.47,24.62,5.18,36.53-2.02,18.58-7.61,36.8-12.22,55.03-.79,3.13-3.8,6.22-6.58,8.24-26.13,19.03-52.86,36.98-83.15,49.14-23.69,9.51-46.91,20.18-70.35,30.34-.59-.49-1.17-.98-1.76-1.47Z"/></g></svg>